PathFileType	4	(X/Y/Z)	C:/Users/opensim2020/Desktop/walking_exp_matlab/subject06_walking16_straight_03.trc	
DataRate	CameraRate	NumFrames	NumMarkers	Units	OrigDataRate	OrigDataStartFrame	OrigNumFrames	
100.00	100.00	4	51	mm	100.00	2929	283	
Frame#	Time	LFHD			RFHD			LBHD			RBHD			C7			T10			CLAV			STRN			RBAK			LSHO			LUPA			LELB			LFRM			LWRA			LWRB			LFIN			RSHO			RUPA			RELB			RFRM			RWRA			RWRB			RFIN			LASI			RASI			LPSI			RPSI			LTHI			LKNE			LTIB			LANK			LHEE			LTOE			RTHI			RKNE			RTIB			RANK			RHEE			RTOE			*39			*40			*41			*42			*43			*44			*45			*46			*47			*48			*49			*50			
		X1	Y1	Z1	X2	Y2	Z2	X3	Y3	Z3	X4	Y4	Z4	X5	Y5	Z5	X6	Y6	Z6	X7	Y7	Z7	X8	Y8	Z8	X9	Y9	Z9	X10	Y10	Z10	X11	Y11	Z11	X12	Y12	Z12	X13	Y13	Z13	X14	Y14	Z14	X15	Y15	Z15	X16	Y16	Z16	X17	Y17	Z17	X18	Y18	Z18	X19	Y19	Z19	X20	Y20	Z20	X21	Y21	Z21	X22	Y22	Z22	X23	Y23	Z23	X24	Y24	Z24	X25	Y25	Z25	X26	Y26	Z26	X27	Y27	Z27	X28	Y28	Z28	X29	Y29	Z29	X30	Y30	Z30	X31	Y31	Z31	X32	Y32	Z32	X33	Y33	Z33	X34	Y34	Z34	X35	Y35	Z35	X36	Y36	Z36	X37	Y37	Z37	X38	Y38	Z38	X39	Y39	Z39	X40	Y40	Z40	X41	Y41	Z41	X42	Y42	Z42	X43	Y43	Z43	X44	Y44	Z44	X45	Y45	Z45	X46	Y46	Z46	X47	Y47	Z47	X48	Y48	Z48	X49	Y49	Z49	X50	Y50	Z50	X51	Y51	Z51	

107	1.060	-1085.62781	-181.04289	1658.26843	-955.68549	-198.02287	1642.81042	-1106.44116	-310.41586	1601.20557	-978.63007	-326.53436	1590.03955	-1052.07947	-316.46307	1444.02429	-1041.13977	-357.43771	1115.75012	-1042.38281	-207.92197	1365.50037	-1050.66663	-170.47949	1190.90137	-979.88977	-397.12878	1274.44910	-1206.74072	-247.36423	1401.19250	-1281.47986	-196.56374	1207.86841	-1295.94678	-159.57953	1100.73792	-1305.69897	-57.55172	989.47443	-1252.80554	54.48316	937.52075	-1285.98413	11.44751	891.85895	-1283.04529	94.43528	856.76367	-884.43707	-264.12518	1395.74670	-803.15436	-331.19571	1203.33569	-793.96155	-336.30969	1079.74304	-779.94263	-338.21277	958.59131	-814.58356	-300.89301	812.69971	-773.85876	-354.25681	821.16864	-774.90771	-328.99326	740.07361	-1147.26941	-179.92619	954.19409	-927.56567	-175.57809	965.35376	-1115.84888	-338.99997	979.91968	-947.00732	-328.67242	982.74060	-1192.18909	-264.74991	638.83704	-1166.92786	-284.32455	475.48386	-1159.51794	-379.73792	233.80867	-1111.21606	-430.96091	69.36195	-1069.46643	-478.40991	61.78633	-1095.08179	-291.53952	33.13739	-854.16956	-161.50896	636.55896	-882.72766	-112.58994	520.75842	-878.54498	-75.53361	263.01239	-915.77136	-20.77004	82.83999	-964.43121	-46.98243	51.27895	-906.53613	136.89868	79.35000	-1039.58276	-289.12299	1692.03467																																	 
108	1.070	-1084.68628	-172.81375	1657.07129	-954.65472	-189.91040	1641.49500	-1105.56592	-302.03088	1599.82800	-977.82330	-318.21371	1588.53979	-1051.34167	-307.93811	1442.77539	-1040.50830	-349.08752	1114.55396	-1041.62524	-199.46625	1364.17102	-1050.08618	-162.06923	1189.62219	-979.39069	-388.78549	1273.28967	-1205.89563	-238.70738	1400.03540	-1280.96814	-188.11487	1206.83411	-1295.47229	-150.64833	1099.97803	-1304.97363	-47.02465	990.04608	-1251.92383	65.65332	940.18024	-1284.84399	23.49414	893.66656	-1281.71484	107.04433	860.02405	-883.66321	-255.70560	1394.34387	-802.72754	-323.68704	1202.16199	-793.71399	-329.59970	1078.59106	-779.77881	-332.46866	957.43323	-814.45197	-296.36264	811.16229	-773.81885	-349.65015	820.09961	-775.04089	-325.48389	738.98505	-1146.69153	-171.50346	952.98364	-927.16815	-166.88593	964.17786	-1115.07214	-330.80322	978.67621	-946.27600	-319.90585	981.53314	-1191.77539	-258.43143	638.01331	-1166.59534	-279.40417	474.73907	-1159.53442	-377.69699	234.09366	-1111.22607	-430.61331	70.10161	-1069.38452	-478.18735	63.03994	-1095.12195	-291.47623	33.06554	-853.85541	-153.31291	635.30286	-882.49005	-105.66938	519.44855	-877.90601	-64.09795	262.34589	-914.93768	-5.94970	83.30048	-963.81329	-31.51434	51.34547	-906.23303	152.15996	81.52157	-1038.67749	-281.05017	1690.66394																																	 
109	1.080	-1083.61816	-164.49654	1655.87866	-953.54797	-181.65877	1640.26147	-1104.62122	-293.58636	1598.46423	-976.89783	-309.87720	1587.09033	-1050.53674	-299.43805	1441.62183	-1039.82935	-340.66925	1113.40112	-1040.80139	-190.90961	1362.92444	-1049.49536	-153.71367	1188.30066	-978.84229	-380.37234	1272.12317	-1205.12451	-230.20956	1398.86182	-1280.33960	-179.67638	1205.73621	-1295.04956	-141.79128	1099.10303	-1304.23987	-36.88682	990.44611	-1251.06750	76.45757	942.52673	-1283.73230	35.10627	895.20978	-1280.46033	119.19176	862.95190	-882.80365	-247.18117	1392.93542	-802.05682	-315.93942	1200.93164	-793.37347	-322.60571	1077.39453	-779.51587	-326.41772	956.26221	-814.27380	-291.42386	809.75806	-773.84351	-344.40463	819.08539	-774.92896	-321.37912	737.73181	-1146.29858	-163.14290	951.69818	-926.67554	-157.98994	962.98926	-1114.16321	-322.56046	977.51184	-945.39825	-311.06476	980.37036	-1191.50195	-252.20721	637.14124	-1166.33142	-274.47766	474.06009	-1159.57703	-375.56442	234.41331	-1111.39209	-430.18207	70.96584	-1069.67651	-477.83200	64.21172	-1095.16809	-291.30954	33.05083	-853.08679	-144.57248	634.42236	-882.21106	-98.27881	518.37164	-877.33447	-53.53305	261.55563	-914.24164	7.15053	83.16701	-962.95807	-18.03980	50.97963	-906.12115	165.71294	83.80500	-1037.64001	-272.82590	1689.24634																																	 
110	1.090	-1082.52649	-156.12802	1654.82141	-952.42255	-173.33751	1639.08850	-1103.63428	-285.15009	1597.24829	-975.84796	-301.43954	1585.67834	-1049.62598	-290.89511	1440.44653	-1039.01526	-331.96799	1112.14294	-1039.94653	-182.38333	1361.73376	-1048.80798	-145.20013	1187.06921	-978.22113	-371.89041	1270.93958	-1204.27600	-221.59354	1397.72327	-1279.64600	-171.31476	1204.58154	-1294.56311	-132.86111	1098.08423	-1303.44360	-26.88312	990.75928	-1250.11987	86.93589	944.51526	-1282.58215	46.36360	896.54504	-1279.27576	130.92976	865.57385	-881.88416	-238.57283	1391.57849	-801.62695	-308.29208	1199.76123	-793.00232	-315.30154	1076.19885	-779.20331	-320.02402	955.04767	-813.92139	-286.15051	808.35211	-773.33203	-339.41995	818.10858	-774.78717	-316.75275	736.43207	-1146.38599	-155.26157	950.19391	-926.17670	-149.09074	961.80524	-1113.05835	-314.15948	976.39508	-944.18616	-302.40350	979.30206	-1190.95422	-245.80180	636.29321	-1166.14124	-269.21921	473.44238	-1159.63257	-373.22675	234.80644	-1111.69495	-429.72510	71.90756	-1070.20178	-477.26917	65.48036	-1095.26123	-291.14413	32.95538	-853.02917	-135.62416	633.33826	-882.41809	-90.19710	517.59613	-876.70575	-43.80250	260.75690	-913.52765	18.63421	82.78645	-962.16791	-5.83616	49.95851	-906.19623	177.49094	85.73488	-1036.58203	-264.52182	1687.93811																																	 
